<svg width="92" height="92" viewBox="0 0 92 92" fill="none" xmlns="http://www.w3.org/2000/svg">
    <path fill-rule="evenodd" clip-rule="evenodd"
          d="M92 46.0001C92 71.4051 71.4051 92 46.0001 92C20.5949 92 0 71.4051 0 46.0001C0 20.5949 20.5949 0 46.0001 0C71.4051 0 92 20.5949 92 46.0001ZM59.94 17.5636C59.94 24.9543 53.9486 30.9455 46.5582 30.9455C39.1676 30.9455 33.1763 24.9543 33.1763 17.5636C33.1763 10.1731 39.1676 4.18182 46.5582 4.18182C53.9486 4.18182 59.94 10.1731 59.94 17.5636ZM29.2727 83.6363C36.6633 83.6363 42.6545 77.6451 42.6545 70.2545C42.6545 62.8639 36.6633 56.8727 29.2727 56.8727C21.8821 56.8727 15.8908 62.8639 15.8908 70.2545C15.8908 77.6451 21.8821 83.6363 29.2727 83.6363ZM55.2003 46.5576C55.2003 51.3307 51.3309 55.2001 46.5578 55.2001C41.7847 55.2001 37.9154 51.3307 37.9154 46.5576C37.9154 41.7846 41.7847 37.9152 46.5578 37.9152C51.3309 37.9152 55.2003 41.7846 55.2003 46.5576ZM74.1581 51.0182C81.5487 51.0182 87.5399 45.027 87.5399 37.6364C87.5399 30.2458 81.5487 24.2546 74.1581 24.2546C66.7675 24.2546 60.7763 30.2458 60.7763 37.6364C60.7763 45.027 66.7675 51.0182 74.1581 51.0182ZM76.9456 70.2545C76.9456 77.6451 70.9543 83.6363 63.5638 83.6363C56.1732 83.6363 50.1819 77.6451 50.1819 70.2545C50.1819 62.8639 56.1732 56.8727 63.5638 56.8727C70.9543 56.8727 76.9456 62.8639 76.9456 70.2545ZM18.6789 51.0182C26.0695 51.0182 32.0607 45.027 32.0607 37.6364C32.0607 30.2458 26.0695 24.2546 18.6789 24.2546C11.2884 24.2546 5.29718 30.2458 5.29718 37.6364C5.29718 45.027 11.2884 51.0182 18.6789 51.0182Z"
          fill="#FFBF00"/>
</svg>
